<svg width="1134" height="1024" viewBox="0 0 1134 1024" fill="none" xmlns="http://www.w3.org/2000/svg">
<path opacity="0.6" fill-rule="evenodd" clip-rule="evenodd" d="M557 1079C864.623 1079 1114 829.623 1114 522C1114 214.377 864.623 -35 557 -35C249.377 -35 0 214.377 0 522C0 829.623 249.377 1079 557 1079Z" fill="#3F21D0"/>
<path fill-rule="evenodd" clip-rule="evenodd" d="M556.606 867.351C747.555 867.351 902.35 712.556 902.35 521.607C902.35 330.657 747.555 175.863 556.606 175.863C365.657 175.863 210.862 330.657 210.862 521.607C210.862 712.556 365.657 867.351 556.606 867.351Z" fill="url(#paint0_linear)"/>
<path fill-rule="evenodd" clip-rule="evenodd" d="M159.172 940.661C173.439 940.661 185.005 929.095 185.005 914.828C185.005 900.561 173.439 888.995 159.172 888.995C144.905 888.995 133.339 900.561 133.339 914.828C133.339 929.095 144.905 940.661 159.172 940.661Z" stroke="white" stroke-width="2"/>
<path fill-rule="evenodd" clip-rule="evenodd" d="M750.378 149.561C754.035 149.561 757 146.596 757 142.939C757 139.282 754.035 136.317 750.378 136.317C746.721 136.317 743.757 139.282 743.757 142.939C743.757 146.596 746.721 149.561 750.378 149.561Z" stroke="white" stroke-width="2"/>
<path fill-rule="evenodd" clip-rule="evenodd" d="M656.378 796.56C660.035 796.56 663 793.596 663 789.939C663 786.282 660.035 783.317 656.378 783.317C652.721 783.317 649.757 786.282 649.757 789.939C649.757 793.596 652.721 796.56 656.378 796.56Z" stroke="white" stroke-width="2"/>
<path fill-rule="evenodd" clip-rule="evenodd" d="M1123.17 924C1128.24 924 1132.34 919.893 1132.34 914.828C1132.34 909.762 1128.24 905.656 1123.17 905.656C1118.11 905.656 1114 909.762 1114 914.828C1114 919.893 1118.11 924 1123.17 924Z" stroke="white" stroke-width="2"/>
<path fill-rule="evenodd" clip-rule="evenodd" d="M766.172 908.995C771.238 908.995 775.344 904.888 775.344 899.823C775.344 894.757 771.238 890.651 766.172 890.651C761.106 890.651 757 894.757 757 899.823C757 904.888 761.106 908.995 766.172 908.995Z" stroke="white" stroke-width="2"/>
<path fill-rule="evenodd" clip-rule="evenodd" d="M1067.17 173.844C1072.24 173.844 1076.34 169.738 1076.34 164.672C1076.34 159.606 1072.24 155.5 1067.17 155.5C1062.11 155.5 1058 159.606 1058 164.672C1058 169.738 1062.11 173.844 1067.17 173.844Z" stroke="white" stroke-width="2"/>
<path fill-rule="evenodd" clip-rule="evenodd" d="M159.172 440.172C164.238 440.172 168.344 436.066 168.344 431C168.344 425.934 164.238 421.828 159.172 421.828C154.106 421.828 150 425.934 150 431C150 436.066 154.106 440.172 159.172 440.172Z" stroke="white" stroke-width="2"/>
<path fill-rule="evenodd" clip-rule="evenodd" d="M150 155.5C158.247 155.5 164.932 148.815 164.932 140.568C164.932 132.321 158.247 125.635 150 125.635C141.753 125.635 135.068 132.321 135.068 140.568C135.068 148.815 141.753 155.5 150 155.5Z" stroke="white" stroke-width="2"/>
<defs>
<linearGradient id="paint0_linear" x1="1420.97" y1="867.351" x2="586.891" y2="-171.933" gradientUnits="userSpaceOnUse">
<stop stop-color="#DF387C"/>
<stop offset="1" stop-color="#FF602C"/>
</linearGradient>
</defs>
</svg>
